<svg width="22" height="19" viewBox="0 0 22 19" fill="none" xmlns="http://www.w3.org/2000/svg">
<path d="M10.7198 17.9925L10.7196 17.9923L3.06354 10.1484C3.06349 10.1484 3.06343 10.1483 3.06338 10.1483C2.05903 9.11862 1.50263 7.75032 1.50263 6.29266C1.50263 4.82903 2.05589 3.46141 3.05875 2.43309C4.06218 1.40853 5.38312 0.85 6.78696 0.85C8.17344 0.85 9.48035 1.3942 10.4799 2.39248L11.0805 2.99234L11.6812 2.39251C12.6758 1.39932 13.9781 0.858716 15.3614 0.858716C16.7699 0.858716 18.0904 1.4175 19.0933 2.44561C20.0964 3.47383 20.6498 4.8414 20.65 6.30503C20.6459 7.76527 20.0921 9.13328 19.0891 10.1615L11.4499 17.9925C11.3517 18.0931 11.2126 18.15 11.0848 18.15C10.9522 18.15 10.8218 18.0971 10.7198 17.9925Z" stroke="black" stroke-width="1.7"/>
</svg>
