<svg width="36" height="36" viewBox="0 0 36 36" fill="none" xmlns="http://www.w3.org/2000/svg">
<circle cx="17.9169" cy="18" r="17.5" fill="black"/>
<path fill-rule="evenodd" clip-rule="evenodd" d="M18.2046 26.4495C17.8844 26.4495 17.579 26.3221 17.3519 26.0935L10.6456 19.3482C9.62904 18.3251 9.06677 16.9649 9.06677 15.5221C9.06677 14.0756 9.62532 12.7153 10.6419 11.6923C11.6584 10.673 13.0064 10.1109 14.44 10.1109C15.855 10.1109 17.188 10.658 18.2009 11.6511C19.21 10.6618 20.5393 10.1184 21.9506 10.1184C23.3879 10.1184 24.7359 10.6805 25.7524 11.7035C26.769 12.7266 27.3275 14.0869 27.3275 15.5334C27.3238 16.9761 26.7652 18.3364 25.7487 19.3594L19.0573 26.0935C18.8339 26.3183 18.5211 26.4495 18.2046 26.4495ZM14.4437 11.029C13.2521 11.029 12.1313 11.4974 11.2898 12.3443C10.4482 13.195 9.98279 14.323 9.98279 15.5221C9.98279 16.7213 10.4482 17.8492 11.2935 18.6999L17.9961 25.4452C18.1078 25.5538 18.3051 25.5538 18.4131 25.4452L25.1082 18.7074C25.9535 17.8567 26.4189 16.7288 26.4189 15.5296C26.4189 14.3304 25.9572 13.2025 25.1119 12.3518C24.2704 11.5049 23.1496 11.0365 21.958 11.0365C20.7627 11.0365 19.6419 11.5049 18.7966 12.3556L18.5285 12.6254C18.4429 12.7116 18.3237 12.7603 18.2046 12.7603C18.0817 12.7603 17.9663 12.7116 17.8806 12.6254L17.6051 12.3481C16.7598 11.4974 15.6353 11.029 14.4437 11.029Z" fill="white"/>
<path d="M17.3519 26.0935L17.6001 25.8468L17.6001 25.8467L17.3519 26.0935ZM10.6456 19.3482L10.3973 19.5949L10.3974 19.595L10.6456 19.3482ZM10.6419 11.6923L10.3941 11.4451L10.3936 11.4456L10.6419 11.6923ZM18.2009 11.6511L17.9558 11.901L18.2009 12.1412L18.4459 11.901L18.2009 11.6511ZM25.7524 11.7035L26.0007 11.4568L25.7524 11.7035ZM27.3275 15.5334L27.6775 15.5343V15.5334H27.3275ZM25.7487 19.3594L25.997 19.6061V19.6061L25.7487 19.3594ZM19.0573 26.0935L19.3056 26.3402L19.0573 26.0935ZM11.2898 12.3443L11.0415 12.0976L11.041 12.0982L11.2898 12.3443ZM11.2935 18.6999L11.0452 18.9466L11.2935 18.6999ZM17.9961 25.4452L17.7478 25.6919L17.752 25.696L17.9961 25.4452ZM18.4131 25.4452L18.1648 25.1985L18.1648 25.1985L18.4131 25.4452ZM25.1082 18.7074L25.3565 18.9541L25.1082 18.7074ZM25.1119 12.3518L24.8637 12.5985V12.5985L25.1119 12.3518ZM18.7966 12.3556L18.5484 12.1089L18.5484 12.1089L18.7966 12.3556ZM18.5285 12.6254L18.7768 12.8721L18.7768 12.8721L18.5285 12.6254ZM17.8806 12.6254L17.6324 12.8721V12.8721L17.8806 12.6254ZM17.6051 12.3481L17.8534 12.1014L17.8534 12.1014L17.6051 12.3481ZM17.1036 26.3402C17.396 26.6345 17.7906 26.7995 18.2046 26.7995V26.0995C17.9782 26.0995 17.762 26.0096 17.6001 25.8468L17.1036 26.3402ZM10.3974 19.595L17.1037 26.3402L17.6001 25.8467L10.8938 19.1014L10.3974 19.595ZM8.71677 15.5221C8.71677 17.0575 9.31576 18.5064 10.3973 19.5949L10.8939 19.1015C9.94233 18.1439 9.41677 16.8722 9.41677 15.5221H8.71677ZM10.3936 11.4456C9.31151 12.5346 8.71677 13.9837 8.71677 15.5221H9.41677C9.41677 14.1675 9.93913 12.8961 10.8901 11.939L10.3936 11.4456ZM14.44 9.7609C12.9127 9.7609 11.4758 10.3605 10.3941 11.4451L10.8897 11.9394C11.841 10.9855 13.1 10.4609 14.44 10.4609V9.7609ZM18.4459 11.4012C17.368 10.3443 15.9472 9.7609 14.44 9.7609V10.4609C15.7628 10.4609 17.008 10.9717 17.9558 11.901L18.4459 11.4012ZM21.9506 9.7684C20.4475 9.7684 19.0303 10.3478 17.9558 11.4011L18.4459 11.901C19.3897 10.9757 20.6311 10.4684 21.9506 10.4684V9.7684ZM26.0007 11.4568C24.9187 10.368 23.4815 9.7684 21.9506 9.7684V10.4684C23.2943 10.4684 24.553 10.9931 25.5041 11.9502L26.0007 11.4568ZM27.6775 15.5334C27.6775 13.995 27.0828 12.5458 26.0007 11.4568L25.5041 11.9502C26.4552 12.9073 26.9775 14.1788 26.9775 15.5334H27.6775ZM25.997 19.6061C27.079 18.5172 27.6736 17.0684 27.6775 15.5343L26.9775 15.5325C26.974 16.8838 26.4515 18.1556 25.5004 19.1127L25.997 19.6061ZM19.3056 26.3402L25.997 19.6061L25.5004 19.1127L18.809 25.8468L19.3056 26.3402ZM18.2046 26.7995C18.6151 26.7995 19.017 26.6305 19.3056 26.3402L18.809 25.8468C18.6507 26.0061 18.4271 26.0995 18.2046 26.0995V26.7995ZM11.5381 12.591C12.3143 11.8099 13.3459 11.379 14.4437 11.379V10.679C13.1584 10.679 11.9484 11.185 11.0415 12.0976L11.5381 12.591ZM10.3328 15.5221C10.3328 14.4154 10.7617 13.3758 11.5386 12.5905L11.041 12.0982C10.1348 13.0142 9.63279 14.2305 9.63279 15.5221H10.3328ZM11.5418 18.4532C10.7616 17.6681 10.3328 16.6288 10.3328 15.5221H9.63279C9.63279 16.8138 10.1349 18.0304 11.0452 18.9466L11.5418 18.4532ZM18.2443 25.1985L11.5418 18.4532L11.0452 18.9466L17.7478 25.6919L18.2443 25.1985ZM18.1648 25.1985C18.1863 25.1769 18.2043 25.1767 18.206 25.1767C18.2079 25.1767 18.2222 25.1769 18.2401 25.1943L17.752 25.696C17.9972 25.9346 18.4143 25.9406 18.6614 25.6919L18.1648 25.1985ZM24.86 18.4607L18.1648 25.1985L18.6614 25.6919L25.3565 18.9541L24.86 18.4607ZM26.0689 15.5296C26.0689 16.6363 25.6401 17.6756 24.86 18.4607L25.3565 18.9541C26.2669 18.0379 26.7689 16.8213 26.7689 15.5296H26.0689ZM24.8637 12.5985C25.6433 13.3831 26.0689 14.4222 26.0689 15.5296H26.7689C26.7689 14.2387 26.2711 13.0218 25.3602 12.1051L24.8637 12.5985ZM21.958 11.3865C23.0559 11.3865 24.0875 11.8174 24.8637 12.5985L25.3602 12.1051C24.4533 11.1925 23.2433 10.6865 21.958 10.6865V11.3865ZM19.0449 12.6023C19.8249 11.8173 20.8565 11.3865 21.958 11.3865V10.6865C20.6689 10.6865 19.4589 11.1925 18.5484 12.1089L19.0449 12.6023ZM18.7768 12.8721L19.0449 12.6023L18.5484 12.1089L18.2803 12.3787L18.7768 12.8721ZM18.2046 13.1103C18.4162 13.1103 18.625 13.0249 18.7768 12.8721L18.2803 12.3787C18.2608 12.3982 18.2313 12.4103 18.2046 12.4103V13.1103ZM17.6324 12.8721C17.7832 13.0238 17.9877 13.1103 18.2046 13.1103V12.4103C18.1757 12.4103 18.1494 12.3993 18.1289 12.3787L17.6324 12.8721ZM17.3568 12.5948L17.6324 12.8721L18.1289 12.3787L17.8534 12.1014L17.3568 12.5948ZM14.4437 11.379C15.5416 11.379 16.5769 11.8099 17.3568 12.5948L17.8534 12.1014C16.9427 11.1849 15.7289 10.679 14.4437 10.679V11.379Z" fill="white"/>
</svg>
