<svg width="22" height="21" viewBox="0 0 22 21" fill="none" xmlns="http://www.w3.org/2000/svg">
<path fill-rule="evenodd" clip-rule="evenodd" d="M17.9794 8.53128C17.9794 10.4104 17.3612 12.1438 16.3279 13.555L21.9169 19.1441L20.061 21L14.472 15.411C13.0608 16.4444 11.3273 17.0626 9.44816 17.0626C4.7442 17.0626 0.916931 13.2353 0.916931 8.53128C0.916931 3.82729 4.74416 0 9.44812 0C14.1521 0 17.9794 3.82729 17.9794 8.53128ZM3.54194 8.53128C3.54194 11.7882 6.19127 14.4375 9.44816 14.4375C12.705 14.4375 15.3544 11.7882 15.3544 8.53128C15.3544 5.27437 12.7051 2.62503 9.44816 2.62503C6.19127 2.62503 3.54194 5.27437 3.54194 8.53128Z" fill="black"/>
</svg>
