<svg width="36" height="36" viewBox="0 0 36 36" fill="none" xmlns="http://www.w3.org/2000/svg">
<circle cx="17.9169" cy="18" r="17.5" fill="black"/>
<path fill-rule="evenodd" clip-rule="evenodd" d="M18.1971 25.4884C15.346 25.4884 12.9111 25.0346 12.9111 23.2171C12.9111 21.3997 15.3305 19.7219 18.1971 19.7219C21.0483 19.7219 23.4831 21.3834 23.4831 23.2009C23.4831 25.0176 21.0638 25.4884 18.1971 25.4884Z" stroke="white" stroke-width="1.5" stroke-linecap="round" stroke-linejoin="round"/>
<path fill-rule="evenodd" clip-rule="evenodd" d="M18.1975 17.7997C20.0553 17.7997 21.561 16.294 21.561 14.4362C21.561 12.5784 20.0553 11.072 18.1975 11.072C16.3397 11.072 14.8333 12.5784 14.8333 14.4362C14.8271 16.2877 16.3223 17.7935 18.1738 17.7997C18.1821 17.7997 18.1898 17.7997 18.1975 17.7997Z" stroke="white" stroke-width="1.5" stroke-linecap="round" stroke-linejoin="round"/>
</svg>
