<svg width="36" height="36" viewBox="0 0 36 36" fill="none" xmlns="http://www.w3.org/2000/svg">
<circle cx="18" cy="18" r="18" fill="black"/>
<path d="M9.78612 17.9318H23.8563L19.5963 22.3475C19.4017 22.5492 19.4017 22.8728 19.5963 23.0745C19.7909 23.2763 20.1031 23.2763 20.2977 23.0745L25.4024 17.7834C25.5971 17.5816 25.5971 17.2581 25.4024 17.0563L20.2977 11.7652C20.2022 11.6662 20.0737 11.6129 19.9488 11.6129C19.824 11.6129 19.6954 11.6624 19.6 11.7652C19.4053 11.9669 19.4053 12.2905 19.6 12.4922L23.86 16.9079H9.78612C9.51068 16.9079 9.29034 17.1363 9.29034 17.4218C9.29034 17.7073 9.51068 17.9318 9.78612 17.9318Z" fill="white" stroke="white"/>
</svg>
