<svg width="36" height="35" viewBox="0 0 36 35" fill="none" xmlns="http://www.w3.org/2000/svg">
<g clip-path="url(#clip0_2103_125)">
<circle cx="18.4169" cy="17.5" r="17.5" fill="black"/>
<path fill-rule="evenodd" clip-rule="evenodd" d="M24.2502 16.4394C24.2502 17.9579 23.7507 19.3586 22.9157 20.499L27.4321 25.0154L25.9323 26.5152L21.416 21.9988C20.2756 22.8338 18.8748 23.3334 17.3563 23.3334C13.5551 23.3334 10.4624 20.2406 10.4624 16.4394C10.4624 12.6382 13.5551 9.54547 17.3563 9.54547C21.1575 9.54547 24.2502 12.6382 24.2502 16.4394ZM12.5836 16.4394C12.5836 19.0713 14.7245 21.2121 17.3563 21.2121C19.9881 21.2121 22.1291 19.0713 22.1291 16.4394C22.1291 13.8076 19.9882 11.6667 17.3563 11.6667C14.7245 11.6667 12.5836 13.8076 12.5836 16.4394Z" fill="white"/>
</g>
<defs>
<clipPath id="clip0_2103_125">
<rect width="35" height="35" fill="white" transform="translate(0.916931)"/>
</clipPath>
</defs>
</svg>
