<svg width="36" height="36" viewBox="0 0 36 36" fill="none" xmlns="http://www.w3.org/2000/svg">
<circle cx="17.9169" cy="18" r="17.5" fill="black"/>
<path fill-rule="evenodd" clip-rule="evenodd" d="M23.7493 24.5273L23.3088 13.5976C23.2986 13.3436 23.0899 13.1446 22.8338 13.1446H20.8459V13.1294C20.8459 11.5264 19.532 10.2222 17.9169 10.2222C16.3019 10.2222 14.9879 11.5264 14.9879 13.1294V13.1446H13.0001C12.744 13.1446 12.5353 13.3436 12.5251 13.5976L12.0846 24.5273C12.0713 24.8573 12.191 25.1703 12.4215 25.4084C12.6521 25.6466 12.9623 25.7778 13.2951 25.7778H22.5388C22.8716 25.7778 23.1818 25.6466 23.4124 25.4084C23.6429 25.1702 23.7626 24.8573 23.7493 24.5273ZM15.448 13.1294C15.448 11.7781 16.5555 10.6788 17.9169 10.6788C19.2783 10.6788 20.3859 11.7781 20.3859 13.1294V13.1446H15.448V13.1294ZM22.5388 25.3212C22.7451 25.3212 22.9376 25.2398 23.0806 25.0921C23.2236 24.9443 23.2978 24.7502 23.2896 24.5455L22.8491 13.6158C22.8487 13.6076 22.842 13.6012 22.8338 13.6012H20.8459V15.0776C20.8459 15.2037 20.7429 15.3059 20.6159 15.3059C20.4889 15.3059 20.3859 15.2037 20.3859 15.0776V13.6012H15.448V15.0776C15.448 15.2037 15.345 15.3059 15.2179 15.3059C15.0909 15.3059 14.9879 15.2037 14.9879 15.0776V13.6012H13.0001C12.9918 13.6012 12.9851 13.6076 12.9848 13.6158L12.5443 24.5455C12.536 24.7503 12.6102 24.9444 12.7533 25.0921C12.8963 25.2398 13.0887 25.3212 13.2951 25.3212H22.5388Z" fill="white"/>
<path d="M23.3088 13.5976L22.8092 13.6177L22.8092 13.6177L23.3088 13.5976ZM23.7493 24.5273L23.2497 24.5474L23.2497 24.5474L23.7493 24.5273ZM20.8459 13.1446H20.3459V13.6446H20.8459V13.1446ZM14.9879 13.1446V13.6446H15.4879V13.1446H14.9879ZM12.5251 13.5976L12.0255 13.5774L12.0255 13.5774L12.5251 13.5976ZM12.0846 24.5273L12.5842 24.5474L12.5842 24.5474L12.0846 24.5273ZM12.4215 25.4084L12.0622 25.7562L12.0623 25.7562L12.4215 25.4084ZM23.4124 25.4084L23.7716 25.7562L23.7717 25.7561L23.4124 25.4084ZM20.3859 13.1446V13.6446H20.8859V13.1446H20.3859ZM15.448 13.1446H14.948V13.6446H15.448V13.1446ZM23.0806 25.0921L23.4399 25.4398L23.4399 25.4398L23.0806 25.0921ZM23.2896 24.5455L22.79 24.5657V24.5657L23.2896 24.5455ZM22.8491 13.6158L23.3487 13.5957L23.3487 13.5953L22.8491 13.6158ZM20.8459 13.6012V13.1012H20.3459V13.6012H20.8459ZM20.3859 13.6012H20.8859V13.1012H20.3859V13.6012ZM15.448 13.6012V13.1012H14.948V13.6012H15.448ZM14.9879 13.6012H15.4879V13.1012H14.9879V13.6012ZM12.9848 13.6158L12.4852 13.5953L12.4852 13.5957L12.9848 13.6158ZM12.5443 24.5455L13.0439 24.5658L13.0439 24.5657L12.5443 24.5455ZM12.7533 25.0921L13.1125 24.7443H13.1125L12.7533 25.0921ZM22.8092 13.6177L23.2497 24.5474L24.2488 24.5071L23.8084 13.5774L22.8092 13.6177ZM22.8338 13.6446C22.83 13.6446 22.8235 13.6425 22.8184 13.6377C22.8161 13.6354 22.8138 13.6324 22.812 13.6285C22.8101 13.6244 22.8093 13.6204 22.8092 13.6177L23.8084 13.5775C23.7872 13.0521 23.3549 12.6446 22.8338 12.6446V13.6446ZM20.8459 13.6446H22.8338V12.6446H20.8459V13.6446ZM20.3459 13.1294V13.1446H21.3459V13.1294H20.3459ZM17.9169 10.7222C19.2594 10.7222 20.3459 11.806 20.3459 13.1294H21.3459C21.3459 11.2467 19.8046 9.72223 17.9169 9.72223V10.7222ZM15.4879 13.1294C15.4879 11.806 16.5745 10.7222 17.9169 10.7222V9.72223C16.0293 9.72223 14.4879 11.2467 14.4879 13.1294H15.4879ZM15.4879 13.1446V13.1294H14.4879V13.1446H15.4879ZM13.0001 13.6446H14.9879V12.6446H13.0001V13.6446ZM13.0247 13.6178C13.0246 13.6204 13.0238 13.6244 13.0219 13.6285C13.0201 13.6324 13.0178 13.6354 13.0155 13.6377C13.0104 13.6425 13.0039 13.6446 13.0001 13.6446V12.6446C12.4789 12.6446 12.0467 13.0521 12.0255 13.5774L13.0247 13.6178ZM12.5842 24.5474L13.0247 13.6177L12.0255 13.5774L11.585 24.5071L12.5842 24.5474ZM12.7808 25.0607C12.6449 24.9204 12.5764 24.7402 12.5842 24.5474L11.585 24.5071C11.5661 24.9744 11.737 25.4202 12.0622 25.7562L12.7808 25.0607ZM13.2951 25.2778C13.0972 25.2778 12.9167 25.2011 12.7807 25.0607L12.0623 25.7562C12.3874 26.0921 12.8275 26.2778 13.2951 26.2778V25.2778ZM22.5388 25.2778H13.2951V26.2778H22.5388V25.2778ZM23.0531 25.0607C22.9172 25.2011 22.7367 25.2778 22.5388 25.2778V26.2778C23.0064 26.2778 23.4464 26.0921 23.7716 25.7562L23.0531 25.0607ZM23.2497 24.5474C23.2574 24.7402 23.1889 24.9204 23.0531 25.0607L23.7717 25.7561C24.0969 25.4201 24.2677 24.9744 24.2488 24.5071L23.2497 24.5474ZM17.9169 10.1788C16.2829 10.1788 14.948 11.4985 14.948 13.1294H15.948C15.948 12.0578 16.8281 11.1788 17.9169 11.1788V10.1788ZM20.8859 13.1294C20.8859 11.4985 19.5509 10.1788 17.9169 10.1788V11.1788C19.0057 11.1788 19.8859 12.0578 19.8859 13.1294H20.8859ZM20.8859 13.1446V13.1294H19.8859V13.1446H20.8859ZM15.448 13.6446H20.3859V12.6446H15.448V13.6446ZM14.948 13.1294V13.1446H15.948V13.1294H14.948ZM22.7214 24.7443C22.6729 24.7943 22.6103 24.8212 22.5388 24.8212V25.8212C22.88 25.8212 23.2022 25.6853 23.4399 25.4398L22.7214 24.7443ZM22.79 24.5657C22.7927 24.6331 22.7696 24.6944 22.7213 24.7443L23.4399 25.4398C23.6776 25.1942 23.8029 24.8673 23.7892 24.5254L22.79 24.5657ZM22.3495 13.636L22.79 24.5657L23.7892 24.5254L23.3487 13.5957L22.3495 13.636ZM22.8338 14.1012C22.5767 14.1012 22.3603 13.8989 22.3495 13.6364L23.3487 13.5953C23.3372 13.3163 23.1073 13.1012 22.8338 13.1012V14.1012ZM20.8459 14.1012H22.8338V13.1012H20.8459V14.1012ZM21.3459 15.0776V13.6012H20.3459V15.0776H21.3459ZM20.6159 15.8059C21.0155 15.8059 21.3459 15.4834 21.3459 15.0776H20.3459C20.3459 14.9241 20.4703 14.8059 20.6159 14.8059V15.8059ZM19.8859 15.0776C19.8859 15.4834 20.2163 15.8059 20.6159 15.8059V14.8059C20.7615 14.8059 20.8859 14.9241 20.8859 15.0776H19.8859ZM19.8859 13.6012V15.0776H20.8859V13.6012H19.8859ZM15.448 14.1012H20.3859V13.1012H15.448V14.1012ZM15.948 15.0776V13.6012H14.948V15.0776H15.948ZM15.2179 15.8059C15.6176 15.8059 15.948 15.4834 15.948 15.0776H14.948C14.948 14.9241 15.0724 14.8059 15.2179 14.8059V15.8059ZM14.4879 15.0776C14.4879 15.4834 14.8183 15.8059 15.2179 15.8059V14.8059C15.3635 14.8059 15.4879 14.9241 15.4879 15.0776H14.4879ZM14.4879 13.6012V15.0776H15.4879V13.6012H14.4879ZM13.0001 14.1012H14.9879V13.1012H13.0001V14.1012ZM13.4843 13.6363C13.4735 13.8996 13.2565 14.1012 13.0001 14.1012V13.1012C12.7272 13.1012 12.4967 13.3157 12.4852 13.5953L13.4843 13.6363ZM13.0439 24.5657L13.4844 13.636L12.4852 13.5957L12.0447 24.5254L13.0439 24.5657ZM13.1125 24.7443C13.0642 24.6945 13.0412 24.6332 13.0439 24.5658L12.0447 24.5253C12.0309 24.8673 12.1563 25.1943 12.394 25.4399L13.1125 24.7443ZM13.2951 24.8212C13.2235 24.8212 13.1609 24.7943 13.1125 24.7443L12.394 25.4399C12.6317 25.6853 12.9539 25.8212 13.2951 25.8212V24.8212ZM22.5388 24.8212H13.2951V25.8212H22.5388V24.8212Z" fill="white"/>
</svg>
